<?xml version="1.0" encoding="iso-8859-1"?>
<!-- Generator: Adobe Illustrator 19.0.0, SVG Export Plug-In . SVG Version: 6.00 Build 0)  -->
<svg xmlns="http://www.w3.org/2000/svg" xmlns:xlink="http://www.w3.org/1999/xlink" version="1.1" id="Layer_1" x="0px" y="0px" viewBox="0 0 512 512" style="enable-background:new 0 0 512 512;" xml:space="preserve">
<path id="SVGCleanerId_0" style="fill:#4D5560;" d="M431.116,298.645c-1.286-23.42-16.763-43.132-38.645-49.036l-84.737-19.201  l-51.734,35.685l-51.734-35.685l-84.737,19.201c-21.882,5.904-37.359,25.616-38.645,49.036l-4.08,78.431h178.434h0.761h0.761  h178.434L431.116,298.645z"/>
<g>
	<path id="SVGCleanerId_0_1_" style="fill:#4D5560;" d="M431.116,298.645c-1.286-23.42-16.763-43.132-38.645-49.036l-84.737-19.201   l-51.734,35.685l-51.734-35.685l-84.737,19.201c-21.882,5.904-37.359,25.616-38.645,49.036l-4.08,78.431h178.434h0.761h0.761   h178.434L431.116,298.645z"/>
</g>
<g>
	<path style="fill:#3F4651;" d="M255.998,266.093l-0.001,0.001l-0.044-0.032l-51.688-35.654l-24.915,5.646l-0.129,0.038   l35.147,44.769c1.269,1.615,3.471,2.163,5.348,1.331l36.283-16.098L255.998,266.093z"/>
	<path style="fill:#3F4651;" d="M256.005,266.093l0.001,0.001l0.044-0.032l51.688-35.654l24.915,5.646l0.129,0.038l-35.147,44.769   c-1.267,1.615-3.47,2.163-5.348,1.331l-36.283-16.098L256.005,266.093z"/>
</g>
<g>
	<polygon style="fill:#FC3F49;" points="256.011,266.094 256.011,266.092 256.01,266.093 256.009,266.092 256.009,266.094    236.244,274.859 246.171,299.507 265.849,299.507 275.75,274.855  "/>
	<polygon style="fill:#FC3F49;" points="265.852,299.507 256.011,299.507 246.171,299.507 233.711,377.077 279.118,377.077  "/>
</g>
<path style="fill:#F28F0C;" d="M282.4,27.023h-21.471c28.287,0,51.217,22.931,51.217,51.217v51.824h21.471V78.241  C333.617,49.954,310.686,27.023,282.4,27.023z"/>
<path style="fill:#FFC07B;" d="M321.444,105.095v38.075c8.583-0.566,15.36-6.923,15.36-14.719v-8.632  C336.804,112.02,330.027,105.66,321.444,105.095z"/>
<path style="fill:#FED9A8;" d="M190.556,105.095v38.075c-8.583-0.566-15.36-6.923-15.36-14.719v-8.632  C175.196,112.02,181.972,105.66,190.556,105.095z"/>
<path style="fill:#FE9901;" d="M282.4,27.023h-52.47c-28.287,0-51.217,22.931-51.217,51.217v32.491  c2.801-3.186,7.039-5.32,11.845-5.637v0.034l0,0v-7.512c7.923-10.1,26.082-4.088,63.882-5.541  c28.437-1.093,40.514-16.14,45.468-31.027c3.377,1.303,16.459,8.27,16.459,38.039c0,3.474,2.311,5.228,5.322,6.034  c4.902,0.388,9.184,2.668,11.929,6.017V78.241C333.617,49.954,310.686,27.023,282.4,27.023z"/>
<g>
	<path id="SVGCleanerId_1" style="fill:#FED9A8;" d="M316.366,99.088c0-29.77-13.082-36.736-16.459-38.039   c-4.955,14.887-17.032,29.933-45.468,31.027c-37.799,1.453-55.958-4.558-63.882,5.541v54.668c0,12.853,5.089,25.132,14.057,33.922   l13.75,13.476c6.72,6.585,15.584,10.25,24.794,10.25h26.015c9.21,0,18.075-3.664,24.794-10.25l13.75-13.476   c8.968-8.79,14.057-21.069,14.057-33.922v-47.14C318.72,104.351,316.366,102.596,316.366,99.088z"/>
</g>
<g>
	<path id="SVGCleanerId_1_1_" style="fill:#FED9A8;" d="M316.366,99.088c0-29.77-13.082-36.736-16.459-38.039   c-4.955,14.887-17.032,29.933-45.468,31.027c-37.799,1.453-55.958-4.558-63.882,5.541v54.668c0,12.853,5.089,25.132,14.057,33.922   l13.75,13.476c6.72,6.585,15.584,10.25,24.794,10.25h26.015c9.21,0,18.075-3.664,24.794-10.25l13.75-13.476   c8.968-8.79,14.057-21.069,14.057-33.922v-47.14C318.72,104.351,316.366,102.596,316.366,99.088z"/>
</g>
<g>
	<path id="SVGCleanerId_1_2_" style="fill:#FED9A8;" d="M316.366,99.088c0-29.77-13.082-36.736-16.459-38.039   c-4.955,14.887-17.032,29.933-45.468,31.027c-37.799,1.453-55.958-4.558-63.882,5.541v54.668c0,12.853,5.089,25.132,14.057,33.922   l13.75,13.476c6.72,6.585,15.584,10.25,24.794,10.25h26.015c9.21,0,18.075-3.664,24.794-10.25l13.75-13.476   c8.968-8.79,14.057-21.069,14.057-33.922v-47.14C318.72,104.351,316.366,102.596,316.366,99.088z"/>
</g>
<g>
	<path style="fill:#FFC07B;" d="M254.438,101.566c31.41,0,46.692-20.383,52.766-35.083c-3.014-3.468-5.94-4.911-7.298-5.435   c-4.955,14.887-17.032,29.933-45.468,31.027c-37.799,1.453-55.958-4.558-63.882,5.541v9.491   C198.48,97.008,216.611,101.566,254.438,101.566z"/>
	<path style="fill:#FFC07B;" d="M316.366,99.088c0-28.718-12.172-36.213-16.064-37.877v91.073c0,12.853-5.089,25.132-14.057,33.922   l-13.75,13.476c-6.719,6.585-15.584,10.25-24.794,10.25h21.471c9.21,0,18.075-3.664,24.794-10.25l13.75-13.476   c8.968-8.79,14.057-21.069,14.057-33.922v-47.139C318.72,104.351,316.366,102.596,316.366,99.088z"/>
</g>
<path style="fill:#F7C68B;" d="M191.65,134.018h3.671v-19.771h-3.671c-3.234,0-5.856,2.622-5.856,5.856v8.058  C185.793,131.395,188.415,134.018,191.65,134.018z"/>
<path style="fill:#F2AD5A;" d="M318.765,134.018h-3.671v-19.771h3.671c3.234,0,5.856,2.622,5.856,5.856v8.058  C324.622,131.395,321.999,134.018,318.765,134.018z"/>
<path style="fill:#FED9A8;" d="M287.053,205c-5.411,3.208-11.564,4.933-17.881,4.933h-26.015c-6.438,0-12.704-1.797-18.191-5.124  l-2.392,22.495l-12.2,7.32l45.625,31.47l45.625-31.47l-12.2-7.32L287.053,205z"/>
<path style="fill:#F2C18B;" d="M240.696,209.845c-0.733-0.052-1.461-0.131-2.187-0.229c-0.077-0.011-0.155-0.019-0.232-0.03  c-0.701-0.099-1.397-0.224-2.089-0.365c-0.1-0.02-0.2-0.039-0.299-0.06c-0.674-0.144-1.341-0.31-2.006-0.495  c-0.114-0.032-0.228-0.062-0.341-0.095c-0.65-0.187-1.294-0.394-1.932-0.618c-0.122-0.043-0.244-0.086-0.365-0.131  c-0.628-0.229-1.251-0.476-1.866-0.74c-0.124-0.054-0.248-0.109-0.372-0.163c-0.609-0.27-1.214-0.557-1.808-0.863  c-0.121-0.062-0.241-0.127-0.362-0.19c-0.594-0.313-1.181-0.641-1.758-0.988c-0.042-0.025-0.085-0.046-0.128-0.072l-0.262,2.462  c4.534,5.812,23.153,24.957,63.837,11.74l0,0L287.038,205c-0.001,0.001-0.003,0.001-0.004,0.002  c-0.607,0.361-1.227,0.695-1.854,1.018c-0.163,0.084-0.327,0.165-0.491,0.246c-0.511,0.253-1.028,0.495-1.549,0.722  c-0.14,0.061-0.279,0.127-0.42,0.186c-0.651,0.274-1.308,0.53-1.972,0.766c-0.112,0.04-0.226,0.074-0.338,0.112  c-0.558,0.191-1.119,0.366-1.685,0.528c-0.189,0.054-0.378,0.107-0.567,0.157c-0.575,0.154-1.154,0.294-1.736,0.419  c-0.11,0.023-0.219,0.052-0.329,0.074c-0.684,0.139-1.374,0.255-2.067,0.353c-0.176,0.025-0.352,0.043-0.528,0.065  c-0.539,0.069-1.08,0.123-1.623,0.166c-0.2,0.016-0.401,0.033-0.601,0.045c-0.702,0.043-1.408,0.072-2.115,0.072h-26.015  c-0.772,0-1.541-0.03-2.306-0.08C240.789,209.849,240.742,209.848,240.696,209.845z"/>
<path style="fill:#FFF4E9;" d="M255.999,185.699c10.511,0,19.343-5.98,21.86-14.077c0.729-2.346-1.056-4.724-3.511-4.724h-36.696  c-2.457,0-4.241,2.378-3.511,4.724C236.656,179.719,245.49,185.699,255.999,185.699z"/>
<g>
	<path style="fill:#3F4651;" d="M119.899,272.347l-13.403-17.14c-14.76,8.923-24.537,25.033-25.549,43.438l-4.08,78.431h58.341   l2.336-49.293C138.491,307.788,132.23,288.116,119.899,272.347z"/>
	<path style="fill:#3F4651;" d="M392.082,272.347l13.403-17.14c14.76,8.923,24.537,25.033,25.549,43.438l4.08,78.431h-58.341   l-2.336-49.293C373.49,307.788,379.751,288.116,392.082,272.347z"/>
</g>
<polygon style="fill:#EA2F41;" points="267.137,307.019 265.852,299.507 256.011,299.507 246.171,299.507 244.963,307.019 "/>
<path style="fill:#84C9FE;" d="M498.076,373.413H13.923c-3.322,0-6.015-2.693-6.015-6.015v-28.357c0-3.322,2.693-6.015,6.015-6.015  h484.153c3.322,0,6.015,2.693,6.015,6.015v28.357C504.092,370.72,501.398,373.413,498.076,373.413z"/>
<path style="fill:#70B9E5;" d="M476.676,333.026v40.387h21.401c3.322,0,6.015-2.693,6.015-6.015v-28.357  c0-3.322-2.693-6.015-6.015-6.015h-21.401V333.026z"/>
<path style="fill:#84C9FE;" d="M465.297,484.977H46.702c-5.993,0-10.851-4.858-10.851-10.851V373.413h440.296v100.712  C476.148,480.118,471.29,484.977,465.297,484.977z"/>
<g>
	<path style="fill:#70B9E5;" d="M448.732,373.413v111.563h16.566c5.993,0,10.85-4.858,10.85-10.851V373.413H448.732z"/>
	<rect x="35.852" y="373.417" style="fill:#70B9E5;" width="440.302" height="11.948"/>
</g>
<g>
	<path style="fill:#232323;" d="M227.584,128.664v-4.868c0-3.355-2.719-6.075-6.075-6.075s-6.075,2.719-6.075,6.075v4.868   c0,3.355,2.719,6.075,6.075,6.075S227.584,132.018,227.584,128.664z"/>
	<path style="fill:#232323;" d="M290.491,134.739c3.355,0,6.075-2.719,6.075-6.075v-4.868c0-3.355-2.719-6.075-6.075-6.075   c-3.355,0-6.075,2.719-6.075,6.075v4.868C284.416,132.018,287.136,134.739,290.491,134.739z"/>
	<path style="fill:#232323;" d="M498.077,325.119h-57.664l-1.4-26.908c-1.474-26.857-19.35-49.456-44.481-56.237   c-0.103-0.027-0.207-0.054-0.312-0.077l-59.779-13.546c-0.014-0.003-0.026-0.007-0.04-0.011l-24.915-5.646   c-1.35-0.306-2.74-0.25-4.035,0.142c-0.778,0.234-1.524,0.59-2.207,1.061l-1.918,1.323l-4.454-2.673l-1.455-13.686   c1.417-1.089,2.785-2.261,4.084-3.534l13.751-13.475c10.44-10.232,16.43-24.655,16.43-39.57v-2.96   c8.841-3.458,15.03-11.566,15.03-20.874v-8.633c0-4.014-1.17-7.798-3.186-11.094V78.241c0-32.602-26.524-59.126-59.126-59.126   h-52.47c-32.602,0-59.126,26.524-59.126,59.126v29.953c-2.222,3.416-3.516,7.393-3.516,11.623v8.633   c0,9.425,6.343,17.623,15.359,21.006v2.829c0,14.913,5.988,29.335,16.431,39.57l13.749,13.475c1.206,1.182,2.472,2.276,3.78,3.299   l-1.48,13.92l-4.454,2.673l-1.918-1.323c-1.364-0.942-2.978-1.421-4.609-1.397c-0.544,0.008-1.09,0.073-1.629,0.194l-24.915,5.646   c-0.004,0.001-0.008,0.002-0.012,0.003l-59.81,13.553c-0.105,0.023-0.209,0.05-0.312,0.077   c-25.131,6.78-43.006,29.379-44.484,56.26l-1.398,26.885H13.923C6.247,325.119,0,331.365,0,339.042v28.357   c0,7.678,6.247,13.924,13.923,13.924h14.02v32.509c0,4.369,3.54,7.908,7.908,7.908c4.369,0,7.908-3.54,7.908-7.908v-32.509h424.48   v92.803c0,1.622-1.32,2.942-2.942,2.942H46.702c-1.622,0-2.942-1.32-2.942-2.942v-25.761c0-4.369-3.54-7.908-7.908-7.908   s-7.908,3.54-7.908,7.908v25.761c0,10.344,8.415,18.759,18.759,18.759h418.596c10.344,0,18.759-8.415,18.759-18.759v-92.803h14.02   c7.676,0,13.923-6.247,13.923-13.924v-28.357C512,331.365,505.753,325.119,498.077,325.119z M407.05,266.044   c9.479,8.039,15.368,19.948,16.085,33.012l1.356,26.063H382.28c-0.294-17.304,5.344-34.233,16.032-47.9L407.05,266.044z    M393.181,258.104l-7.329,9.372c-12.867,16.453-19.684,36.817-19.389,57.643h-88.207l-4.232-24.744l6.01-14.966l9.044,4.013   c1.593,0.707,3.284,1.066,5.026,1.066c3.83,0,7.383-1.728,9.752-4.742l32.063-40.84l54.641,12.38   C391.447,257.529,392.318,257.807,393.181,258.104z M233.039,267.63c-0.002,0.001-0.005,0.002-0.007,0.003l-14.086,6.25   l-25.789-32.848l9.473-2.147l37.261,25.7l-5.178,2.298L233.039,267.63z M260.503,291.6h-8.991l-5.077-12.608l9.57-4.244   l9.563,4.243L260.503,291.6z M274.545,265.668l-2.431-1.079l37.257-25.699l9.474,2.147l-25.787,32.847L274.545,265.668z    M252.911,307.417h6.271l3.027,17.702h-12.142L252.911,307.417z M229.93,34.931h52.47c23.88,0,43.309,19.428,43.309,43.309V97.73   c-0.301-0.064-0.606-0.114-0.91-0.168c-0.18-0.032-0.355-0.076-0.537-0.103c-0.009-0.597-0.034-1.168-0.054-1.749   c-0.013-0.391-0.019-0.795-0.036-1.18c-0.027-0.622-0.071-1.22-0.11-1.823c-0.023-0.356-0.039-0.723-0.066-1.073   c-0.046-0.605-0.107-1.188-0.164-1.776c-0.032-0.328-0.058-0.666-0.093-0.988c-0.065-0.594-0.143-1.163-0.219-1.738   c-0.039-0.295-0.072-0.601-0.114-0.891c-0.082-0.573-0.178-1.124-0.271-1.678c-0.045-0.273-0.086-0.556-0.134-0.824   c-0.099-0.551-0.211-1.081-0.321-1.613c-0.052-0.251-0.098-0.512-0.152-0.76c-0.118-0.539-0.246-1.057-0.373-1.575   c-0.055-0.222-0.104-0.454-0.16-0.673c-0.137-0.53-0.284-1.04-0.429-1.55c-0.055-0.191-0.105-0.39-0.161-0.579   c-0.154-0.517-0.317-1.012-0.482-1.507c-0.055-0.166-0.107-0.341-0.162-0.505c-0.173-0.505-0.353-0.99-0.536-1.473   c-0.053-0.139-0.102-0.287-0.155-0.424c-0.19-0.49-0.387-0.962-0.586-1.429c-0.05-0.117-0.097-0.243-0.148-0.359   c-0.208-0.478-0.422-0.936-0.637-1.39c-0.045-0.095-0.088-0.196-0.133-0.29c-0.222-0.461-0.451-0.902-0.681-1.337   c-0.041-0.078-0.081-0.161-0.122-0.238c-0.236-0.441-0.478-0.863-0.72-1.278c-0.038-0.064-0.074-0.134-0.112-0.197   c-0.252-0.425-0.507-0.833-0.764-1.232c-0.031-0.047-0.06-0.098-0.09-0.144c-0.268-0.411-0.538-0.806-0.811-1.19   c-0.021-0.03-0.041-0.061-0.062-0.091c-0.277-0.389-0.556-0.761-0.836-1.124c-0.017-0.022-0.033-0.045-0.05-0.066   c-4.459-5.732-9.231-8.146-11.563-9.046c-2.016-0.777-4.264-0.695-6.219,0.225c-1.955,0.923-3.449,2.606-4.131,4.657   c-5.478,16.461-17.995,24.842-38.269,25.621c-1.439,0.055-2.843,0.096-4.228,0.131c-0.27,0.006-0.541,0.013-0.812,0.019   c-2.838,0.063-5.567,0.088-8.175,0.082c-0.088,0-0.174-0.001-0.262-0.001c-2.665-0.007-5.211-0.044-7.634-0.097   c-0.09-0.002-0.179-0.004-0.269-0.006c-2.378-0.054-4.638-0.122-6.781-0.193c-0.193-0.006-0.387-0.013-0.578-0.02   c-0.947-0.032-1.877-0.064-2.777-0.096c-0.033-0.001-0.066-0.002-0.099-0.003c-0.027-0.001-0.052-0.002-0.079-0.003   c-0.94-0.033-1.86-0.065-2.767-0.095c-0.171-0.006-0.35-0.012-0.52-0.018c-0.757-0.025-1.498-0.047-2.232-0.069   c-0.56-0.016-1.11-0.03-1.653-0.043c-0.352-0.008-0.704-0.017-1.052-0.023c-1.275-0.026-2.522-0.045-3.719-0.045   c-3.824,0-7.845,0.129-11.713,0.863c-0.263,0.047-0.523,0.097-0.781,0.151c-0.047,0.011-0.095,0.02-0.142,0.031   c-4.411,0.925-8.13,2.594-11.24,5.497v-11.99C186.62,54.359,206.049,34.931,229.93,34.931z M210.149,180.558   c-7.426-7.278-11.685-17.583-11.685-28.273v-4.969c0-0.714-0.103-1.403-0.28-2.061c0.137-0.503,0.228-1.025,0.264-1.565   c0.287-4.359-3.013-8.125-7.371-8.411c-4.47-0.294-7.972-3.294-7.972-6.829v-8.633c0-1.416,0.568-2.743,1.529-3.847   c0.005-0.006,0.012-0.011,0.017-0.017c1.043-1.185,2.483-2.067,4.122-2.555c0.064-0.019,0.132-0.034,0.197-0.052   c0.198-0.055,0.398-0.106,0.601-0.15c0.1-0.021,0.204-0.038,0.306-0.056c0.174-0.032,0.348-0.061,0.524-0.084   c0.069-0.008,0.139-0.015,0.209-0.022c3.716-0.025,6.816-2.613,7.635-6.084c0.001-0.003,0.001-0.005,0.002-0.008   c0.05-0.213,0.09-0.428,0.121-0.647c0.009-0.06,0.02-0.121,0.027-0.181c0.021-0.168,0.034-0.336,0.043-0.507   c0.007-0.113,0.015-0.226,0.017-0.34c0.001-0.046,0.007-0.091,0.007-0.137v-3.975c0.901-0.48,2.029-0.837,3.419-1.088   c0.125-0.022,0.257-0.043,0.389-0.064c0.234-0.038,0.477-0.073,0.724-0.105c0.247-0.033,0.503-0.063,0.769-0.092   c0.239-0.025,0.482-0.05,0.733-0.072c0.17-0.015,0.338-0.03,0.516-0.043c0.454-0.034,0.921-0.064,1.412-0.086   c0.008,0,0.017-0.001,0.024-0.001c3.943-0.182,9.064-0.033,15.512,0.195c0.889,0.032,1.802,0.063,2.728,0.094   c0.332,0.012,0.66,0.022,0.998,0.034c1.01,0.034,2.035,0.066,3.092,0.097c0.159,0.004,0.325,0.008,0.485,0.013   c0.94,0.026,1.901,0.052,2.879,0.074c0.295,0.006,0.588,0.014,0.887,0.02c1.121,0.024,2.263,0.044,3.435,0.06   c0.23,0.003,0.466,0.004,0.697,0.007c1.013,0.012,2.048,0.02,3.101,0.023c0.309,0.001,0.614,0.003,0.926,0.003   c0.155,0,0.305,0.002,0.462,0.002c1.18,0,2.344-0.006,3.501-0.018c0.191-0.002,0.389-0.006,0.581-0.008   c1.218-0.014,2.428-0.035,3.633-0.061c0.346-0.007,0.692-0.016,1.041-0.024c1.446-0.037,2.89-0.079,4.337-0.135   c26.797-1.029,40.81-13.227,48.127-26.141c2.822,4.337,5.59,11.974,5.59,25.251c0,0.419,0.017,0.832,0.048,1.238   c0.023,0.284,0.063,0.561,0.101,0.838c0.017,0.118,0.024,0.24,0.043,0.357c0.062,0.381,0.14,0.754,0.232,1.121   c0.002,0.009,0.004,0.02,0.006,0.031c0.757,3.013,2.493,5.551,5.035,7.416c0.008,0.006,0.015,0.013,0.023,0.018   c0.294,0.215,0.602,0.42,0.918,0.616c0.027,0.017,0.054,0.037,0.082,0.054c0.298,0.183,0.609,0.354,0.925,0.521   c0.052,0.027,0.099,0.057,0.151,0.083c0.304,0.155,0.619,0.298,0.939,0.438c0.071,0.032,0.138,0.066,0.21,0.097   c0.313,0.132,0.638,0.252,0.966,0.368c0.07,0.024,0.135,0.054,0.205,0.078c0.669,0.286,1.386,0.48,2.138,0.572   c0.228,0.038,0.454,0.064,0.681,0.082c2.581,0.229,4.887,1.364,6.337,3.134c0.044,0.054,0.095,0.1,0.14,0.153   c0.793,1.034,1.254,2.239,1.254,3.515v8.633c0,3.535-3.501,6.533-7.972,6.829c-4.358,0.286-7.659,4.052-7.371,8.411   c0.042,0.635,0.166,1.242,0.346,1.824c-0.018,0.218-0.034,0.438-0.034,0.66v6.111c0,10.691-4.259,20.996-11.683,28.273   l-13.751,13.475c-1.639,1.606-3.43,2.986-5.338,4.127c-0.023,0.014-0.048,0.023-0.072,0.037c-0.524,0.311-1.057,0.603-1.598,0.876   c-0.009,0.004-0.018,0.009-0.027,0.014c-1.629,0.824-3.328,1.48-5.069,1.962c0,0-0.001,0-0.002,0   c-1.142,0.315-2.304,0.554-3.475,0.717c-0.071,0.009-0.141,0.017-0.212,0.026c-0.473,0.062-0.948,0.11-1.425,0.146   c-0.131,0.011-0.262,0.021-0.392,0.03c-0.548,0.034-1.099,0.056-1.649,0.056h-26.016c-0.56,0-1.12-0.023-1.679-0.058   c-0.128-0.008-0.255-0.019-0.383-0.028c-0.51-0.04-1.02-0.091-1.527-0.159c-0.041-0.005-0.082-0.009-0.122-0.016   c-3.637-0.512-7.17-1.77-10.377-3.716c-0.024-0.015-0.05-0.024-0.074-0.039c-1.817-1.111-3.528-2.437-5.096-3.974L210.149,180.558z    M226.644,234.085c2.128-1.276,3.532-3.478,3.795-5.945l1.262-11.868c1.834,0.509,3.701,0.899,5.598,1.161   c0.081,0.012,0.162,0.019,0.243,0.03c0.782,0.103,1.57,0.183,2.362,0.244c0.204,0.016,0.407,0.033,0.611,0.045   c0.877,0.054,1.758,0.091,2.642,0.091h26.016c0.864,0,1.723-0.035,2.58-0.086c0.202-0.013,0.404-0.03,0.606-0.044   c0.737-0.055,1.472-0.128,2.202-0.22c0.119-0.015,0.238-0.027,0.356-0.044c1.824-0.246,3.623-0.611,5.39-1.086l1.253,11.779   c0.263,2.467,1.667,4.669,3.795,5.945l1.67,1.002l-31.025,21.4l-31.025-21.4L226.644,234.085z M176.085,244.904l32.065,40.844   c2.366,3.011,5.92,4.739,9.75,4.739c1.741,0,3.432-0.36,5.026-1.066l9.042-4.012l6.046,15.014l-3.967,24.696h-88.527   c0.293-20.826-6.524-41.189-19.391-57.643l-7.324-9.367c0.867-0.298,1.743-0.578,2.636-0.822L176.085,244.904z M88.844,299.078   c0.719-13.083,6.609-24.994,16.088-33.033l8.737,11.174c10.688,13.668,16.327,30.596,16.033,47.9H87.49L88.844,299.078z    M496.183,365.505h-20.035H35.852H15.817v-24.57h480.366V365.505z"/>
	<path style="fill:#232323;" d="M226.588,173.969c3.593,11.563,15.687,19.638,29.412,19.638c13.725,0,25.819-8.075,29.412-19.638   c1.082-3.482,0.434-7.317-1.732-10.259c-2.175-2.956-5.665-4.72-9.332-4.72h-36.696c-3.667,0-7.156,1.764-9.332,4.72   C226.154,166.651,225.505,170.487,226.588,173.969z M266.006,174.807c-2.663,1.858-6.218,2.983-10.006,2.983   c-3.788,0-7.343-1.125-10.006-2.983H266.006z"/>
</g>
<g>
</g>
<g>
</g>
<g>
</g>
<g>
</g>
<g>
</g>
<g>
</g>
<g>
</g>
<g>
</g>
<g>
</g>
<g>
</g>
<g>
</g>
<g>
</g>
<g>
</g>
<g>
</g>
<g>
</g>
</svg>
